<?xml version="1.0" encoding="UTF-8" standalone="no"?>
<!-- Created with Inkscape (http://www.inkscape.org/) -->

<svg
   width="129.00702mm"
   height="101.73867mm"
   viewBox="0 0 129.00702 101.73867"
   version="1.1"
   id="svg1"
   xml:space="preserve"
   inkscape:version="1.4.3 (0d15f75, 2025-12-25)"
   sodipodi:docname="Logo.svg"
   xmlns:inkscape="http://www.inkscape.org/namespaces/inkscape"
   xmlns:sodipodi="http://sodipodi.sourceforge.net/DTD/sodipodi-0.dtd"
   xmlns="http://www.w3.org/2000/svg"
   xmlns:svg="http://www.w3.org/2000/svg"><sodipodi:namedview
     id="namedview1"
     pagecolor="#505050"
     bordercolor="#eeeeee"
     borderopacity="1"
     inkscape:showpageshadow="0"
     inkscape:pageopacity="0"
     inkscape:pagecheckerboard="0"
     inkscape:deskcolor="#505050"
     inkscape:document-units="mm"
     inkscape:zoom="1.1912133"
     inkscape:cx="185.52513"
     inkscape:cy="470.52868"
     inkscape:window-width="3440"
     inkscape:window-height="1417"
     inkscape:window-x="-8"
     inkscape:window-y="-8"
     inkscape:window-maximized="1"
     inkscape:current-layer="layer1"><inkscape:page
       x="0"
       y="0"
       width="129.00702"
       height="101.73867"
       id="page2"
       margin="0"
       bleed="0" /></sodipodi:namedview><defs
     id="defs1" /><g
     inkscape:label="Ebene 1"
     inkscape:groupmode="layer"
     id="layer1"
     transform="translate(-51.217699,-89.723031)"><path
       style="fill:#000000;stroke-width:3.47286"
       d="m 73.715486,94.841443 1.113739,-4.15879 3.666405,-0.959623 3.22922,2.338165 -0.88898,3.935007 -3.888459,1.386211 z"
       id="path10"
       sodipodi:nodetypes="ccccccc"
       inkscape:export-filename="OUTPUT\path10.svg"
       inkscape:export-xdpi="249.66"
       inkscape:export-ydpi="249.66" /><path
       style="fill:#000000;stroke-width:3.47286"
       d="m 51.443612,135.37923 -0.225909,-4.2994 3.19042,-2.04563 3.793704,1.22584 0.370512,4.01712 -3.269783,2.51996 z"
       id="path9"
       sodipodi:nodetypes="ccccccc" /><path
       style="fill:#000000;stroke-width:3.47286"
       d="m 173.74103,105.21031 -1.46734,-3.60499 2.50296,-2.845796 3.98462,0.132681 1.46346,3.759355 -2.54061,3.00243 z"
       id="path8"
       sodipodi:nodetypes="ccccccc" /><path
       style="fill:#000000;stroke-width:3.14395"
       d="m 84.151695,137.57273 -23.226868,-5.12242 -0.137095,-1.12461 24.995793,-7.95846 17.228085,1.10085 -1.28423,-14.75716 -18.701505,-14.558478 0.266428,-1.26769 34.213357,4.656004 12.58436,16.608304 15.70171,-7.89705 25.07246,-3.55587 0.49124,1.04623 -16.37262,14.29975 -5.55421,18.57022 -22.87909,-1.61142 -25.90034,18.24003 z"
       id="path7"
       sodipodi:nodetypes="cccccccccccccccccc" /><path
       style="fill:#000000;stroke-width:3.14395"
       d="m 129.07885,154.85351 9.04421,-6.35425 7.89302,0.55008 -0.70967,2.47509 1.85234,3.08824 -6.81637,-0.62192 z"
       id="path6"
       sodipodi:nodetypes="ccccccc" /><path
       style="fill:#000000;stroke-width:3.14395"
       d="m 146.84512,146.40346 0.78209,-2.6357 3.40995,12.74684 5.03371,8.44293 -5.37438,3.62732 z"
       id="path5"
       sodipodi:nodetypes="cccccc" /><path
       style="fill:#000000;stroke-width:3.14395"
       d="m 123.74014,191.4617 -14.40725,-11.87866 -6.08716,-22.81703 2.6994,2.70053 7.20751,17.17705 11.87835,9.64748 19.81764,0.13107 8.23339,-4.18103 0.50839,2.89051 -5.90293,6.09279 z"
       id="path3"
       sodipodi:nodetypes="ccccccccccc" /><path
       style="fill:#000000;stroke-width:0.24273"
       d="m 137.41224,177.80316 6.39504,1.19024 5.16704,-2.44168 2.64031,-2.6689 0.64393,3.95513 -8.42504,3.82488 -6.80039,-2.7212 z"
       id="path4"
       sodipodi:nodetypes="cccccccc" /></g></svg>
